<svg xmlns="http://www.w3.org/2000/svg" xmlns:xlink="http://www.w3.org/1999/xlink" width="1080" zoomAndPan="magnify" viewBox="0 0 810 809.999993" height="1080" preserveAspectRatio="xMidYMid meet" version="1.0"><defs><g/></defs><g fill="#000000" fill-opacity="1"><g transform="translate(394.722345, 672.164137)"><g><path d="M -97.171875 50.28125 L -82.125 -18.078125 L -75.203125 -16.546875 L -87.234375 38.140625 L -50.265625 -1.9375 L -46.84375 -1.1875 L -30.03125 50.421875 L -18.0625 -3.984375 L -11.140625 -2.453125 L -26.1875 65.90625 L -32.140625 64.59375 L -50.671875 7.375 L -91.21875 51.59375 Z M -97.171875 50.28125 "/></g></g></g><g fill="#000000" fill-opacity="1"><g transform="translate(310.492379, 652.624895)"><g><path d="M -27.609375 -14.96875 C -23.109375 -12.613281 -19.585938 -9.476562 -17.046875 -5.5625 C -14.515625 -1.644531 -13.148438 2.648438 -12.953125 7.328125 C -12.765625 12.015625 -13.863281 16.632812 -16.25 21.1875 C -18.625 25.738281 -21.785156 29.28125 -25.734375 31.8125 C -29.679688 34.34375 -33.976562 35.671875 -38.625 35.796875 C -43.28125 35.921875 -47.859375 34.804688 -52.359375 32.453125 C -56.847656 30.109375 -60.367188 26.992188 -62.921875 23.109375 C -65.484375 19.222656 -66.84375 14.941406 -67 10.265625 C -67.15625 5.597656 -66.046875 0.988281 -63.671875 -3.5625 C -61.285156 -8.113281 -58.132812 -11.660156 -54.21875 -14.203125 C -50.3125 -16.742188 -46.019531 -18.09375 -41.34375 -18.25 C -36.675781 -18.40625 -32.097656 -17.3125 -27.609375 -14.96875 Z M -30.53125 -9.390625 C -33.832031 -11.109375 -37.191406 -11.898438 -40.609375 -11.765625 C -44.035156 -11.628906 -47.207031 -10.554688 -50.125 -8.546875 C -53.050781 -6.546875 -55.441406 -3.773438 -57.296875 -0.234375 C -59.140625 3.316406 -60.050781 6.863281 -60.03125 10.40625 C -60.007812 13.957031 -59.070312 17.171875 -57.21875 20.046875 C -55.363281 22.929688 -52.785156 25.234375 -49.484375 26.953125 C -46.171875 28.679688 -42.804688 29.476562 -39.390625 29.34375 C -35.984375 29.207031 -32.796875 28.144531 -29.828125 26.15625 C -26.867188 24.175781 -24.46875 21.410156 -22.625 17.859375 C -20.769531 14.316406 -19.875 10.757812 -19.9375 7.1875 C -20 3.625 -20.953125 0.40625 -22.796875 -2.46875 C -24.640625 -5.351562 -27.21875 -7.660156 -30.53125 -9.390625 Z M -30.53125 -9.390625 "/></g></g></g><g fill="#000000" fill-opacity="1"><g transform="translate(260.908351, 627.976367)"><g><path d="M -62.421875 16.78125 C -66.203125 13.601562 -68.90625 9.867188 -70.53125 5.578125 C -72.15625 1.296875 -72.523438 -3.128906 -71.640625 -7.703125 C -70.765625 -12.273438 -68.65625 -16.550781 -65.3125 -20.53125 C -61.96875 -24.507812 -58.117188 -27.320312 -53.765625 -28.96875 C -49.410156 -30.625 -44.972656 -31.03125 -40.453125 -30.1875 C -35.929688 -29.351562 -31.78125 -27.347656 -28 -24.171875 C -24.632812 -21.347656 -22.210938 -18.097656 -20.734375 -14.421875 C -19.253906 -10.742188 -18.832031 -6.863281 -19.46875 -2.78125 L -12.78125 -10.75 L -7.578125 -6.375 L -55.3125 50.4375 L -60.75 45.875 L -40.421875 21.671875 C -44.285156 22.859375 -48.097656 23.023438 -51.859375 22.171875 C -55.628906 21.316406 -59.148438 19.519531 -62.421875 16.78125 Z M -31.671875 -19.046875 C -34.484375 -21.398438 -37.582031 -22.890625 -40.96875 -23.515625 C -44.363281 -24.148438 -47.71875 -23.816406 -51.03125 -22.515625 C -54.34375 -21.210938 -57.285156 -19.03125 -59.859375 -15.96875 C -62.429688 -12.90625 -64.078125 -9.625 -64.796875 -6.125 C -65.515625 -2.632812 -65.269531 0.722656 -64.0625 3.953125 C -62.863281 7.191406 -60.859375 9.988281 -58.046875 12.34375 C -55.191406 14.738281 -52.082031 16.238281 -48.71875 16.84375 C -45.351562 17.457031 -42.007812 17.109375 -38.6875 15.796875 C -35.375 14.492188 -32.429688 12.3125 -29.859375 9.25 C -27.285156 6.1875 -25.640625 2.910156 -24.921875 -0.578125 C -24.210938 -4.066406 -24.445312 -7.414062 -25.625 -10.625 C -26.800781 -13.84375 -28.816406 -16.648438 -31.671875 -19.046875 Z M -31.671875 -19.046875 "/></g></g></g><g fill="#000000" fill-opacity="1"><g transform="translate(214.036632, 587.048643)"><g><path d="M -46.234375 26.953125 L -50.875 21.59375 L -11.125 -12.84375 L -6.484375 -7.484375 Z M -57.296875 31.75 C -56.328125 32.851562 -55.894531 34.113281 -56 35.53125 C -56.101562 36.945312 -56.6875 38.117188 -57.75 39.046875 C -58.757812 39.910156 -59.96875 40.289062 -61.375 40.1875 C -62.78125 40.082031 -63.96875 39.476562 -64.9375 38.375 C -65.894531 37.257812 -66.332031 36.003906 -66.25 34.609375 C -66.175781 33.222656 -65.632812 32.09375 -64.625 31.21875 C -63.519531 30.257812 -62.257812 29.828125 -60.84375 29.921875 C -59.4375 30.023438 -58.253906 30.632812 -57.296875 31.75 Z M -57.296875 31.75 "/></g></g></g><g fill="#000000" fill-opacity="1"><g transform="translate(198.379169, 569.186144)"><g><path d="M -66 35.296875 L -70.15625 29.546875 L -9.9375 -13.796875 L -5.78125 -8.046875 Z M -66 35.296875 "/></g></g></g><g fill="#000000" fill-opacity="1"><g transform="translate(184.268958, 552.301016)"><g><path d="M -47.015625 -38.375 L -26.78125 0.6875 C -22.113281 -2.175781 -19.15625 -6.066406 -17.90625 -10.984375 C -16.664062 -15.910156 -17.378906 -20.945312 -20.046875 -26.09375 C -21.546875 -28.988281 -23.441406 -31.382812 -25.734375 -33.28125 C -28.035156 -35.175781 -30.65625 -36.488281 -33.59375 -37.21875 L -31.34375 -42.890625 C -27.789062 -42.097656 -24.554688 -40.488281 -21.640625 -38.0625 C -18.734375 -35.632812 -16.3125 -32.554688 -14.375 -28.828125 C -11.882812 -24.023438 -10.703125 -19.242188 -10.828125 -14.484375 C -10.953125 -9.722656 -12.28125 -5.375 -14.8125 -1.4375 C -17.351562 2.5 -20.898438 5.648438 -25.453125 8.015625 C -30.015625 10.378906 -34.613281 11.503906 -39.25 11.390625 C -43.894531 11.273438 -48.117188 10.003906 -51.921875 7.578125 C -55.734375 5.160156 -58.757812 1.789062 -61 -2.53125 C -63.238281 -6.84375 -64.238281 -11.238281 -64 -15.71875 C -63.769531 -20.195312 -62.367188 -24.335938 -59.796875 -28.140625 C -57.222656 -31.953125 -53.628906 -35.054688 -49.015625 -37.453125 Z M -55.578125 -5.328125 C -53.242188 -0.828125 -49.851562 2.195312 -45.40625 3.75 C -40.957031 5.3125 -36.320312 5.109375 -31.5 3.140625 L -48.65625 -29.96875 C -53.050781 -27.164062 -55.894531 -23.492188 -57.1875 -18.953125 C -58.476562 -14.421875 -57.941406 -9.878906 -55.578125 -5.328125 Z M -55.578125 -5.328125 "/></g></g></g><g fill="#000000" fill-opacity="1"><g transform="translate(159.601709, 502.800722)"><g/></g></g><g fill="#000000" fill-opacity="1"><g transform="translate(150.046875, 484.72719)"><g><path d="M -70.921875 -0.703125 L -75.234375 -28.875 C -76.347656 -36.175781 -75.863281 -42.851562 -73.78125 -48.90625 C -71.695312 -54.957031 -68.273438 -59.929688 -63.515625 -63.828125 C -58.753906 -67.734375 -53.007812 -70.203125 -46.28125 -71.234375 C -39.5625 -72.253906 -33.34375 -71.613281 -27.625 -69.3125 C -21.914062 -67.019531 -17.164062 -63.296875 -13.375 -58.140625 C -9.59375 -52.984375 -7.144531 -46.753906 -6.03125 -39.453125 L -1.71875 -11.28125 Z M -12.296875 -38.078125 C -13.222656 -44.140625 -15.234375 -49.257812 -18.328125 -53.4375 C -21.429688 -57.625 -25.296875 -60.640625 -29.921875 -62.484375 C -34.554688 -64.335938 -39.644531 -64.84375 -45.1875 -64 C -50.726562 -63.144531 -55.429688 -61.144531 -59.296875 -58 C -63.160156 -54.851562 -65.945312 -50.820312 -67.65625 -45.90625 C -69.363281 -40.988281 -69.753906 -35.5 -68.828125 -29.4375 L -65.703125 -8.96875 L -9.171875 -17.609375 Z M -12.296875 -38.078125 "/></g></g></g><g fill="#000000" fill-opacity="1"><g transform="translate(139.144601, 411.089549)"><g><path d="M -19.15625 -57.578125 L -22.984375 -13.75 C -17.503906 -13.675781 -12.921875 -15.382812 -9.234375 -18.875 C -5.554688 -22.363281 -3.460938 -27 -2.953125 -32.78125 C -2.671875 -36.03125 -2.988281 -39.066406 -3.90625 -41.890625 C -4.832031 -44.722656 -6.34375 -47.234375 -8.4375 -49.421875 L -3.484375 -53 C -0.910156 -50.4375 0.953125 -47.347656 2.109375 -43.734375 C 3.273438 -40.117188 3.671875 -36.21875 3.296875 -32.03125 C 2.828125 -26.644531 1.269531 -21.976562 -1.375 -18.03125 C -4.03125 -14.082031 -7.484375 -11.125 -11.734375 -9.15625 C -15.984375 -7.1875 -20.671875 -6.425781 -25.796875 -6.875 C -30.910156 -7.3125 -35.394531 -8.816406 -39.25 -11.390625 C -43.113281 -13.972656 -46.003906 -17.304688 -47.921875 -21.390625 C -49.835938 -25.472656 -50.582031 -29.941406 -50.15625 -34.796875 C -49.738281 -39.640625 -48.234375 -43.890625 -45.640625 -47.546875 C -43.046875 -51.203125 -39.640625 -53.945312 -35.421875 -55.78125 C -31.210938 -57.625 -26.519531 -58.320312 -21.34375 -57.875 Z M -44.09375 -34.265625 C -44.53125 -29.210938 -43.285156 -24.835938 -40.359375 -21.140625 C -37.441406 -17.441406 -33.414062 -15.132812 -28.28125 -14.21875 L -25.03125 -51.375 C -30.25 -51.351562 -34.617188 -49.773438 -38.140625 -46.640625 C -41.660156 -43.503906 -43.644531 -39.378906 -44.09375 -34.265625 Z M -44.09375 -34.265625 "/></g></g></g><g fill="#000000" fill-opacity="1"><g transform="translate(143.501719, 357.429609)"><g><path d="M -35.6875 -66.46875 L 8.4375 -29.515625 L 6.4375 -22.5 L -50.53125 -14.5625 L -48.5 -21.671875 L -0.015625 -28.296875 L -37.609375 -59.75 Z M -35.6875 -66.46875 "/></g></g></g><g fill="#000000" fill-opacity="1"><g transform="translate(155.731489, 311.322284)"><g><path d="M 3.75 -60.5625 L -16.1875 -21.34375 C -11.144531 -19.226562 -6.257812 -19.097656 -1.53125 -20.953125 C 3.195312 -22.816406 6.875 -26.335938 9.5 -31.515625 C 10.976562 -34.421875 11.816406 -37.351562 12.015625 -40.3125 C 12.222656 -43.28125 11.765625 -46.171875 10.640625 -48.984375 L 16.5625 -50.484375 C 17.988281 -47.128906 18.566406 -43.5625 18.296875 -39.78125 C 18.023438 -36 16.9375 -32.234375 15.03125 -28.484375 C 12.582031 -23.671875 9.382812 -19.925781 5.4375 -17.25 C 1.5 -14.582031 -2.804688 -13.125 -7.484375 -12.875 C -12.160156 -12.632812 -16.785156 -13.675781 -21.359375 -16 C -25.941406 -18.332031 -29.539062 -21.414062 -32.15625 -25.25 C -34.769531 -29.082031 -36.203125 -33.25 -36.453125 -37.75 C -36.703125 -42.25 -35.726562 -46.671875 -33.53125 -51.015625 C -31.320312 -55.347656 -28.332031 -58.722656 -24.5625 -61.140625 C -20.789062 -63.566406 -16.609375 -64.847656 -12.015625 -64.984375 C -7.421875 -65.117188 -2.804688 -64.007812 1.828125 -61.65625 Z M -28.09375 -48.265625 C -30.382812 -43.742188 -30.863281 -39.21875 -29.53125 -34.6875 C -28.207031 -30.164062 -25.335938 -26.519531 -20.921875 -23.75 L -4.03125 -57 C -8.875 -58.9375 -13.515625 -59.109375 -17.953125 -57.515625 C -22.390625 -55.921875 -25.769531 -52.835938 -28.09375 -48.265625 Z M -28.09375 -48.265625 "/></g></g></g><g fill="#000000" fill-opacity="1"><g transform="translate(181.518811, 262.439262)"><g><path d="M -54.84375 -50.953125 L -50.75 -56.734375 L 9.8125 -13.875 L 5.71875 -8.09375 Z M -54.84375 -50.953125 "/></g></g></g><g fill="#000000" fill-opacity="1"><g transform="translate(192.720544, 243.629096)"><g><path d="M 22.125 -22.296875 C 18.601562 -18.640625 14.601562 -16.140625 10.125 -14.796875 C 5.644531 -13.460938 1.132812 -13.363281 -3.40625 -14.5 C -7.945312 -15.632812 -12.066406 -17.976562 -15.765625 -21.53125 C -19.472656 -25.09375 -21.984375 -29.125 -23.296875 -33.625 C -24.617188 -38.125 -24.6875 -42.625 -23.5 -47.125 C -22.320312 -51.625 -19.972656 -55.703125 -16.453125 -59.359375 C -12.953125 -63.015625 -8.972656 -65.523438 -4.515625 -66.890625 C -0.0546875 -68.253906 4.429688 -68.351562 8.953125 -67.1875 C 13.472656 -66.03125 17.585938 -63.671875 21.296875 -60.109375 C 24.992188 -56.554688 27.507812 -52.539062 28.84375 -48.0625 C 30.1875 -43.59375 30.273438 -39.09375 29.109375 -34.5625 C 27.953125 -30.039062 25.625 -25.953125 22.125 -22.296875 Z M 17.59375 -26.65625 C 20.175781 -29.34375 21.878906 -32.347656 22.703125 -35.671875 C 23.535156 -38.992188 23.394531 -42.335938 22.28125 -45.703125 C 21.175781 -49.078125 19.1875 -52.148438 16.3125 -54.921875 C 13.425781 -57.691406 10.273438 -59.5625 6.859375 -60.53125 C 3.453125 -61.5 0.109375 -61.5 -3.171875 -60.53125 C -6.453125 -59.570312 -9.382812 -57.75 -11.96875 -55.0625 C -14.5625 -52.363281 -16.269531 -49.359375 -17.09375 -46.046875 C -17.925781 -42.734375 -17.800781 -39.375 -16.71875 -35.96875 C -15.644531 -32.570312 -13.664062 -29.488281 -10.78125 -26.71875 C -7.90625 -23.945312 -4.742188 -22.09375 -1.296875 -21.15625 C 2.140625 -20.21875 5.5 -20.222656 8.78125 -21.171875 C 12.0625 -22.128906 15 -23.957031 17.59375 -26.65625 Z M 17.59375 -26.65625 "/></g></g></g><g fill="#000000" fill-opacity="1"><g transform="translate(230.299195, 202.962372)"><g><path d="M 1.421875 -64.625 C 5.535156 -67.363281 9.875 -68.90625 14.4375 -69.25 C 19.007812 -69.601562 23.363281 -68.710938 27.5 -66.578125 C 31.644531 -64.453125 35.15625 -61.226562 38.03125 -56.90625 C 40.945312 -52.53125 42.585938 -48.019531 42.953125 -43.375 C 43.328125 -38.726562 42.484375 -34.375 40.421875 -30.3125 C 38.359375 -26.257812 35.242188 -22.847656 31.078125 -20.078125 C 27.523438 -17.710938 23.828125 -16.316406 19.984375 -15.890625 C 16.148438 -15.460938 12.378906 -16.054688 8.671875 -17.671875 L 24.90625 6.734375 L 19 10.671875 L -20.890625 -49.265625 L -15.234375 -53.03125 L -9.484375 -44.375 C -9.617188 -48.457031 -8.75 -52.242188 -6.875 -55.734375 C -5 -59.222656 -2.234375 -62.1875 1.421875 -64.625 Z M 27.171875 -25.046875 C 30.222656 -27.078125 32.523438 -29.632812 34.078125 -32.71875 C 35.628906 -35.800781 36.242188 -39.113281 35.921875 -42.65625 C 35.597656 -46.195312 34.328125 -49.632812 32.109375 -52.96875 C 29.898438 -56.300781 27.226562 -58.785156 24.09375 -60.421875 C 20.96875 -62.066406 17.675781 -62.773438 14.21875 -62.546875 C 10.757812 -62.328125 7.503906 -61.203125 4.453125 -59.171875 C 1.347656 -57.109375 -0.957031 -54.53125 -2.46875 -51.4375 C -3.976562 -48.351562 -4.578125 -45.050781 -4.265625 -41.53125 C -3.960938 -38.019531 -2.707031 -34.597656 -0.5 -31.265625 C 1.71875 -27.929688 4.398438 -25.429688 7.546875 -23.765625 C 10.691406 -22.097656 13.972656 -21.378906 17.390625 -21.609375 C 20.804688 -21.835938 24.066406 -22.984375 27.171875 -25.046875 Z M 27.171875 -25.046875 "/></g></g></g><g fill="#000000" fill-opacity="1"><g transform="translate(280.452756, 169.111944)"><g><path d="M 43.09375 -42.75 L 2.109375 -26.703125 C 4.472656 -21.765625 8.039062 -18.414062 12.8125 -16.65625 C 17.582031 -14.90625 22.664062 -15.085938 28.0625 -17.203125 C 31.101562 -18.390625 33.679688 -20.023438 35.796875 -22.109375 C 37.921875 -24.203125 39.5 -26.671875 40.53125 -29.515625 L 45.9375 -26.671875 C 44.78125 -23.222656 42.835938 -20.175781 40.109375 -17.53125 C 37.390625 -14.882812 34.078125 -12.796875 30.171875 -11.265625 C 25.140625 -9.296875 20.265625 -8.625 15.546875 -9.25 C 10.828125 -9.875 6.640625 -11.648438 2.984375 -14.578125 C -0.671875 -17.515625 -3.4375 -21.375 -5.3125 -26.15625 C -7.175781 -30.9375 -7.8125 -35.628906 -7.21875 -40.234375 C -6.625 -44.835938 -4.921875 -48.90625 -2.109375 -52.4375 C 0.691406 -55.976562 4.359375 -58.632812 8.890625 -60.40625 C 13.410156 -62.175781 17.882812 -62.707031 22.3125 -62 C 26.75 -61.300781 30.726562 -59.472656 34.25 -56.515625 C 37.769531 -53.566406 40.472656 -49.671875 42.359375 -44.828125 Z M 11.125 -54.71875 C 6.40625 -52.875 3.035156 -49.816406 1.015625 -45.546875 C -1.003906 -41.285156 -1.285156 -36.648438 0.171875 -31.640625 L 34.90625 -45.234375 C 32.570312 -49.910156 29.21875 -53.128906 24.84375 -54.890625 C 20.476562 -56.648438 15.90625 -56.59375 11.125 -54.71875 Z M 11.125 -54.71875 "/></g></g></g><g fill="#000000" fill-opacity="1"><g transform="translate(331.383728, 149.561703)"><g><path d="M 7.734375 -44.8125 C 8.640625 -48.613281 10.523438 -51.734375 13.390625 -54.171875 C 16.253906 -56.609375 20.070312 -58.320312 24.84375 -59.3125 L 26.25 -52.546875 L 24.546875 -52.3125 C 19.128906 -51.175781 15.234375 -48.625 12.859375 -44.65625 C 10.484375 -40.695312 9.921875 -35.710938 11.171875 -29.703125 L 16.640625 -3.46875 L 9.703125 -2.015625 L -1.015625 -53.5 L 5.640625 -54.890625 Z M 7.734375 -44.8125 "/></g></g></g><g fill="#000000" fill-opacity="1"><g transform="translate(366.872523, 142.345717)"><g/></g></g><g fill="#000000" fill-opacity="1"><g transform="translate(390.185843, 140.1237)"><g><path d="M 10.59375 0.34375 C 9.132812 0.363281 7.878906 -0.148438 6.828125 -1.203125 C 5.773438 -2.253906 5.238281 -3.546875 5.21875 -5.078125 C 5.195312 -6.609375 5.695312 -7.898438 6.71875 -8.953125 C 7.738281 -10.003906 8.976562 -10.539062 10.4375 -10.5625 C 11.90625 -10.59375 13.179688 -10.097656 14.265625 -9.078125 C 15.347656 -8.054688 15.898438 -6.78125 15.921875 -5.25 C 15.941406 -3.71875 15.425781 -2.410156 14.375 -1.328125 C 13.320312 -0.242188 12.0625 0.3125 10.59375 0.34375 Z M 10.59375 0.34375 "/></g></g></g><g fill="#000000" fill-opacity="1"><g transform="translate(408.607533, 139.631619)"><g/></g></g><g fill="#000000" fill-opacity="1"><g transform="translate(429.811816, 139.213836)"><g><path d="M 31.84375 -58.171875 L 26.015625 -31.296875 L 61.390625 -23.640625 L 60.03125 -17.390625 L 24.65625 -25.046875 L 18.375 3.984375 L 11.140625 2.421875 L 25.953125 -65.984375 L 72.875 -55.828125 L 71.53125 -49.578125 Z M 31.84375 -58.171875 "/></g></g></g><g fill="#000000" fill-opacity="1"><g transform="translate(486.27959, 152.439483)"><g><path d="M 35.671875 -65.8125 L 42.3125 -63.296875 L 15.890625 6.046875 L 9.25 3.53125 Z M 35.671875 -65.8125 "/></g></g></g><g fill="#000000" fill-opacity="1"><g transform="translate(507.176586, 158.249027)"><g><path d="M 75.875 -17.078125 L 49.6875 28.53125 L 43.796875 25.15625 L 48.578125 16.84375 C 45.359375 18.675781 41.894531 19.546875 38.1875 19.453125 C 34.476562 19.359375 30.796875 18.265625 27.140625 16.171875 C 21.191406 12.753906 17.453125 8.394531 15.921875 3.09375 C 14.398438 -2.195312 15.476562 -8.050781 19.15625 -14.46875 L 34.34375 -40.921875 L 40.5 -37.390625 L 25.671875 -11.546875 C 22.910156 -6.753906 22 -2.4375 22.9375 1.40625 C 23.882812 5.25 26.550781 8.429688 30.9375 10.953125 C 35.738281 13.710938 40.363281 14.429688 44.8125 13.109375 C 49.269531 11.785156 52.992188 8.523438 55.984375 3.328125 L 69.71875 -20.609375 Z M 75.875 -17.078125 "/></g></g></g><g fill="#000000" fill-opacity="1"><g transform="translate(559.768983, 189.18801)"><g><path d="M 30.78125 21.8125 C 28.988281 21.863281 27.132812 21.5 25.21875 20.71875 C 23.3125 19.9375 21.539062 18.859375 19.90625 17.484375 C 16.132812 14.296875 14.09375 10.820312 13.78125 7.0625 C 13.46875 3.300781 14.878906 -0.429688 18.015625 -4.140625 L 38.546875 -28.4375 L 31.375 -34.5 L 35.234375 -39.078125 L 42.40625 -33.015625 L 49.828125 -41.796875 L 55.265625 -37.203125 L 47.84375 -28.421875 L 60.0625 -18.09375 L 56.203125 -13.515625 L 43.984375 -23.84375 L 23.71875 0.140625 C 21.695312 2.535156 20.753906 4.863281 20.890625 7.125 C 21.035156 9.382812 22.222656 11.457031 24.453125 13.34375 C 25.578125 14.289062 26.8125 15.023438 28.15625 15.546875 C 29.5 16.078125 30.835938 16.332031 32.171875 16.3125 Z M 30.78125 21.8125 "/></g></g></g><g fill="#000000" fill-opacity="1"><g transform="translate(587.392526, 212.109106)"><g><path d="M 27.546875 25.78125 C 25.765625 25.59375 23.976562 24.976562 22.1875 23.9375 C 20.40625 22.90625 18.800781 21.597656 17.375 20.015625 C 14.0625 16.347656 12.503906 12.628906 12.703125 8.859375 C 12.898438 5.097656 14.800781 1.585938 18.40625 -1.671875 L 42.03125 -22.96875 L 35.75 -29.9375 L 40.203125 -33.953125 L 46.484375 -26.984375 L 55.03125 -34.6875 L 59.796875 -29.40625 L 51.25 -21.703125 L 61.96875 -9.8125 L 57.515625 -5.796875 L 46.796875 -17.6875 L 23.484375 3.34375 C 21.148438 5.4375 19.898438 7.613281 19.734375 9.875 C 19.578125 12.132812 20.476562 14.351562 22.4375 16.53125 C 23.414062 17.613281 24.535156 18.503906 25.796875 19.203125 C 27.066406 19.910156 28.351562 20.34375 29.65625 20.5 Z M 27.546875 25.78125 "/></g></g></g><g fill="#000000" fill-opacity="1"><g transform="translate(611.719566, 237.125219)"><g><path d="M 50.15625 34.15625 L 26.609375 -3 C 22.210938 0.25 19.609375 4.378906 18.796875 9.390625 C 17.984375 14.398438 19.128906 19.359375 22.234375 24.265625 C 23.984375 27.015625 26.082031 29.234375 28.53125 30.921875 C 30.988281 32.609375 33.710938 33.691406 36.703125 34.171875 L 34.953125 40.015625 C 31.335938 39.535156 27.972656 38.207031 24.859375 36.03125 C 21.742188 33.863281 19.0625 31.007812 16.8125 27.46875 C 13.914062 22.894531 12.320312 18.234375 12.03125 13.484375 C 11.75 8.742188 12.695312 4.296875 14.875 0.140625 C 17.0625 -4.003906 20.328125 -7.453125 24.671875 -10.203125 C 29.003906 -12.953125 33.488281 -14.46875 38.125 -14.75 C 42.757812 -15.039062 47.078125 -14.144531 51.078125 -12.0625 C 55.078125 -9.988281 58.378906 -6.894531 60.984375 -2.78125 C 63.585938 1.320312 64.96875 5.613281 65.125 10.09375 C 65.289062 14.582031 64.253906 18.832031 62.015625 22.84375 C 59.785156 26.863281 56.476562 30.265625 52.09375 33.046875 Z M 55.84375 0.484375 C 53.132812 -3.796875 49.492188 -6.519531 44.921875 -7.6875 C 40.347656 -8.851562 35.742188 -8.242188 31.109375 -5.859375 L 51.078125 25.640625 C 55.210938 22.460938 57.726562 18.554688 58.625 13.921875 C 59.519531 9.296875 58.59375 4.816406 55.84375 0.484375 Z M 55.84375 0.484375 "/></g></g></g><g fill="#000000" fill-opacity="1"><g transform="translate(640.619007, 283.395587)"><g><path d="M 45.453125 -0.953125 C 49.359375 -0.785156 52.78125 0.46875 55.71875 2.8125 C 58.65625 5.15625 61.066406 8.578125 62.953125 13.078125 L 56.578125 15.75 L 56.03125 14.140625 C 53.894531 9.046875 50.648438 5.707031 46.296875 4.125 C 41.953125 2.539062 36.953125 2.9375 31.296875 5.3125 L 6.578125 15.671875 L 3.828125 9.140625 L 52.328125 -11.203125 L 54.953125 -4.9375 Z M 45.453125 -0.953125 "/></g></g></g><g fill="#000000" fill-opacity="1"><g transform="translate(654.46675, 316.858162)"><g/></g></g><g fill="#000000" fill-opacity="1"><g transform="translate(661.089452, 339.322712)"><g><path d="M 1.6875 10.484375 C 1.394531 9.046875 1.660156 7.707031 2.484375 6.46875 C 3.316406 5.238281 4.484375 4.46875 5.984375 4.15625 C 7.484375 3.84375 8.847656 4.082031 10.078125 4.875 C 11.304688 5.675781 12.066406 6.796875 12.359375 8.234375 C 12.660156 9.660156 12.414062 11.003906 11.625 12.265625 C 10.832031 13.523438 9.6875 14.3125 8.1875 14.625 C 6.6875 14.9375 5.300781 14.679688 4.03125 13.859375 C 2.769531 13.035156 1.988281 11.910156 1.6875 10.484375 Z M 1.6875 10.484375 "/></g></g></g><g fill="#000000" fill-opacity="1"><g transform="translate(665.085081, 357.310909)"><g/></g></g><g fill="#000000" fill-opacity="1"><g transform="translate(670.026466, 377.563282)"><g><path d="M 16.71875 55.9375 L 18.109375 16.953125 L -0.28125 7.90625 L 0 0.203125 L 68.8125 34.671875 L 68.546875 41.953125 L -2.546875 71.453125 L -2.265625 63.65625 Z M 22.8125 53.4375 L 60.984375 38 L 24.015625 19.859375 Z M 22.8125 53.4375 "/></g></g></g><g fill="#000000" fill-opacity="1"><g transform="translate(668.435193, 441.398577)"><g><path d="M 41.375 49.453125 C 39.625 55.804688 36.378906 60.351562 31.640625 63.09375 C 26.910156 65.832031 21.007812 66.234375 13.9375 64.296875 L -15.46875 56.203125 L -13.578125 49.375 L 15.15625 57.28125 C 20.425781 58.726562 24.800781 58.507812 28.28125 56.625 C 31.769531 54.75 34.1875 51.375 35.53125 46.5 C 37.03125 41.03125 36.59375 36.257812 34.21875 32.1875 C 31.851562 28.113281 27.8125 25.285156 22.09375 23.703125 L -4.515625 16.390625 L -2.625 9.546875 L 48.078125 23.5 L 46.265625 30.0625 L 36.9375 27.484375 C 39.507812 30.191406 41.191406 33.4375 41.984375 37.21875 C 42.773438 41 42.570312 45.078125 41.375 49.453125 Z M 41.375 49.453125 "/></g></g></g><g fill="#000000" fill-opacity="1"><g transform="translate(653.348068, 499.549728)"><g><path d="M 37.8125 86.203125 L -27.5 50.96875 L -24.265625 44.96875 L -15.109375 49.90625 C -17.210938 46.351562 -18.253906 42.59375 -18.234375 38.625 C -18.210938 34.664062 -17.15625 30.75 -15.0625 26.875 C -12.71875 22.53125 -9.597656 19.132812 -5.703125 16.6875 C -1.816406 14.238281 2.453125 12.984375 7.109375 12.921875 C 11.765625 12.859375 16.378906 14.0625 20.953125 16.53125 C 25.523438 19 29.0625 22.195312 31.5625 26.125 C 34.070312 30.050781 35.359375 34.304688 35.421875 38.890625 C 35.492188 43.472656 34.359375 47.9375 32.015625 52.28125 C 29.984375 56.03125 27.378906 58.992188 24.203125 61.171875 C 21.023438 63.359375 17.410156 64.609375 13.359375 64.921875 L 41.1875 79.9375 Z M -9.796875 30.390625 C -11.535156 33.617188 -12.363281 36.941406 -12.28125 40.359375 C -12.195312 43.773438 -11.179688 46.972656 -9.234375 49.953125 C -7.285156 52.941406 -4.550781 55.382812 -1.03125 57.28125 C 2.488281 59.175781 6.03125 60.117188 9.59375 60.109375 C 13.164062 60.109375 16.40625 59.207031 19.3125 57.40625 C 22.21875 55.601562 24.539062 53.085938 26.28125 49.859375 C 28.050781 46.566406 28.890625 43.210938 28.796875 39.796875 C 28.710938 36.378906 27.695312 33.175781 25.75 30.1875 C 23.800781 27.195312 21.066406 24.753906 17.546875 22.859375 C 14.023438 20.960938 10.476562 20.019531 6.90625 20.03125 C 3.34375 20.039062 0.113281 20.945312 -2.78125 22.75 C -5.6875 24.550781 -8.023438 27.097656 -9.796875 30.390625 Z M -9.796875 30.390625 "/></g></g></g><g fill="#000000" fill-opacity="1"><g transform="translate(623.537398, 553.36186)"><g><path d="M 22.578125 39.484375 C 24.296875 42.972656 24.828125 46.570312 24.171875 50.28125 C 23.515625 53.988281 21.664062 57.742188 18.625 61.546875 L 13.234375 57.21875 L 14.390625 55.96875 C 17.847656 51.644531 19.226562 47.195312 18.53125 42.625 C 17.832031 38.050781 15.085938 33.847656 10.296875 30.015625 L -10.625 13.265625 L -6.1875 7.734375 L 34.875 40.59375 L 30.625 45.90625 Z M 22.578125 39.484375 "/></g></g></g><g fill="#000000" fill-opacity="1"><g transform="translate(603.270023, 581.045738)"><g><path d="M -23.859375 20.4375 C -20.054688 17.070312 -15.867188 14.90625 -11.296875 13.9375 C -6.722656 12.96875 -2.21875 13.226562 2.21875 14.71875 C 6.65625 16.21875 10.578125 18.894531 13.984375 22.75 C 17.378906 26.59375 19.550781 30.8125 20.5 35.40625 C 21.445312 40 21.144531 44.488281 19.59375 48.875 C 18.050781 53.269531 15.378906 57.148438 11.578125 60.515625 C 7.785156 63.859375 3.617188 66.03125 -0.921875 67.03125 C -5.472656 68.03125 -9.957031 67.765625 -14.375 66.234375 C -18.789062 64.710938 -22.695312 62.03125 -26.09375 58.1875 C -29.5 54.332031 -31.6875 50.125 -32.65625 45.5625 C -33.625 41 -33.347656 36.503906 -31.828125 32.078125 C -30.304688 27.660156 -27.648438 23.78125 -23.859375 20.4375 Z M -19.6875 25.15625 C -22.476562 27.625 -24.421875 30.476562 -25.515625 33.71875 C -26.617188 36.957031 -26.753906 40.300781 -25.921875 43.75 C -25.097656 47.195312 -23.363281 50.421875 -20.71875 53.421875 C -18.070312 56.410156 -15.082031 58.523438 -11.75 59.765625 C -8.425781 61.015625 -5.085938 61.296875 -1.734375 60.609375 C 1.609375 59.921875 4.675781 58.34375 7.46875 55.875 C 10.269531 53.394531 12.21875 50.535156 13.3125 47.296875 C 14.40625 44.054688 14.550781 40.695312 13.75 37.21875 C 12.945312 33.738281 11.222656 30.503906 8.578125 27.515625 C 5.929688 24.515625 2.929688 22.40625 -0.421875 21.1875 C -3.773438 19.976562 -7.125 19.71875 -10.46875 20.40625 C -13.8125 21.09375 -16.882812 22.675781 -19.6875 25.15625 Z M -19.6875 25.15625 "/></g></g></g><g fill="#000000" fill-opacity="1"><g transform="translate(559.625146, 618.378924)"><g><path d="M 20.265625 49.53125 L 14.3125 53.390625 L -14.265625 9.234375 L -8.3125 5.375 Z M 23.5 61.140625 C 24.726562 60.347656 26.03125 60.097656 27.40625 60.390625 C 28.789062 60.691406 29.863281 61.429688 30.625 62.609375 C 31.351562 63.734375 31.566406 64.984375 31.265625 66.359375 C 30.972656 67.742188 30.210938 68.832031 28.984375 69.625 C 27.742188 70.425781 26.441406 70.691406 25.078125 70.421875 C 23.710938 70.148438 22.671875 69.453125 21.953125 68.328125 C 21.148438 67.097656 20.894531 65.789062 21.1875 64.40625 C 21.488281 63.03125 22.257812 61.941406 23.5 61.140625 Z M 23.5 61.140625 "/></g></g></g><g fill="#000000" fill-opacity="1"><g transform="translate(542.626362, 631.815518)"><g><path d="M -22.953125 91.265625 L -52.953125 23.40625 L -46.734375 20.65625 L -42.53125 30.171875 C -42.007812 26.078125 -40.523438 22.46875 -38.078125 19.34375 C -35.640625 16.226562 -32.40625 13.78125 -28.375 12 C -23.863281 10.007812 -19.320312 9.238281 -14.75 9.6875 C -10.175781 10.144531 -6.023438 11.773438 -2.296875 14.578125 C 1.421875 17.378906 4.328125 21.15625 6.421875 25.90625 C 8.523438 30.664062 9.359375 35.363281 8.921875 40 C 8.492188 44.632812 6.898438 48.78125 4.140625 52.4375 C 1.390625 56.101562 -2.238281 58.929688 -6.75 60.921875 C -10.65625 62.648438 -14.53125 63.398438 -18.375 63.171875 C -22.226562 62.941406 -25.847656 61.710938 -29.234375 59.484375 L -16.453125 88.390625 Z M -26.375 18 C -29.726562 19.476562 -32.414062 21.59375 -34.4375 24.34375 C -36.46875 27.101562 -37.628906 30.257812 -37.921875 33.8125 C -38.210938 37.363281 -37.550781 40.96875 -35.9375 44.625 C -34.3125 48.28125 -32.085938 51.195312 -29.265625 53.375 C -26.441406 55.5625 -23.328125 56.832031 -19.921875 57.1875 C -16.523438 57.539062 -13.148438 56.976562 -9.796875 55.5 C -6.378906 53.988281 -3.660156 51.851562 -1.640625 49.09375 C 0.378906 46.34375 1.535156 43.1875 1.828125 39.625 C 2.117188 36.070312 1.453125 32.46875 -0.171875 28.8125 C -1.785156 25.15625 -4.003906 22.238281 -6.828125 20.0625 C -9.648438 17.882812 -12.757812 16.617188 -16.15625 16.265625 C -19.550781 15.910156 -22.957031 16.488281 -26.375 18 Z M -26.375 18 "/></g></g></g><g fill="#000000" fill-opacity="1"><g transform="translate(485.201127, 655.889793)"><g/></g></g><g fill="#000000" fill-opacity="1"><g transform="translate(462.874811, 661.949957)"><g/></g></g><g fill="#000000" fill-opacity="1"><g transform="translate(439.798042, 665.962799)"><g><path d="M -10.59375 0.484375 C -9.144531 0.347656 -7.851562 0.757812 -6.71875 1.71875 C -5.59375 2.6875 -4.957031 3.9375 -4.8125 5.46875 C -4.675781 6.988281 -5.070312 8.3125 -6 9.4375 C -6.9375 10.570312 -8.128906 11.207031 -9.578125 11.34375 C -11.035156 11.476562 -12.347656 11.078125 -13.515625 10.140625 C -14.679688 9.210938 -15.332031 7.988281 -15.46875 6.46875 C -15.613281 4.9375 -15.203125 3.585938 -14.234375 2.421875 C -13.265625 1.265625 -12.050781 0.617188 -10.59375 0.484375 Z M -10.59375 0.484375 "/></g></g></g></svg>